%TF.GenerationSoftware,KiCad,Pcbnew,10.0.5*%
%TF.CreationDate,2026-08-26T23:26:57-04:00*%
%TF.ProjectId,kicad 1,6b696361-6420-4312-9e6b-696361645f70,rev?*%
%TF.SameCoordinates,Original*%
%TF.FileFunction,Copper,L2,Bot*%
%TF.FilePolarity,Positive*%
%FSLAX46Y46*%
G04 Gerber Fmt 4.6, Leading zero omitted, Abs format (unit mm)*
G04 Created by KiCad (PCBNEW 10.0.5) date 2026-08-26 23:26:57*
%MOMM*%
%LPD*%
G01*
G04 APERTURE LIST*
G04 Aperture macros list*
%AMRoundRect*
0 Rectangle with rounded corners*
0 $1 Rounding radius*
0 $2 $3 $4 $5 $6 $7 $8 $9 X,Y pos of 4 corners*
0 Add a 4 corners polygon primitive as box body*
4,1,4,$2,$3,$4,$5,$6,$7,$8,$9,$2,$3,0*
0 Add four circle primitives for the rounded corners*
1,1,$1+$1,$2,$3*
1,1,$1+$1,$4,$5*
1,1,$1+$1,$6,$7*
1,1,$1+$1,$8,$9*
0 Add four rect primitives between the rounded corners*
20,1,$1+$1,$2,$3,$4,$5,0*
20,1,$1+$1,$4,$5,$6,$7,0*
20,1,$1+$1,$6,$7,$8,$9,0*
20,1,$1+$1,$8,$9,$2,$3,0*%
G04 Aperture macros list end*
%TA.AperFunction,ComponentPad*%
%ADD10O,1.905000X2.000000*%
%TD*%
%TA.AperFunction,ComponentPad*%
%ADD11R,1.905000X2.000000*%
%TD*%
%TA.AperFunction,ComponentPad*%
%ADD12RoundRect,0.250000X-0.750000X0.750000X-0.750000X-0.750000X0.750000X-0.750000X0.750000X0.750000X0*%
%TD*%
%TA.AperFunction,ComponentPad*%
%ADD13C,2.000000*%
%TD*%
%TA.AperFunction,ComponentPad*%
%ADD14RoundRect,0.250000X0.750000X0.750000X-0.750000X0.750000X-0.750000X-0.750000X0.750000X-0.750000X0*%
%TD*%
%TA.AperFunction,ComponentPad*%
%ADD15C,1.400000*%
%TD*%
%TA.AperFunction,ComponentPad*%
%ADD16RoundRect,0.250000X-0.550000X-0.550000X0.550000X-0.550000X0.550000X0.550000X-0.550000X0.550000X0*%
%TD*%
%TA.AperFunction,ComponentPad*%
%ADD17C,1.600000*%
%TD*%
%TA.AperFunction,ComponentPad*%
%ADD18RoundRect,0.250000X0.550000X-0.550000X0.550000X0.550000X-0.550000X0.550000X-0.550000X-0.550000X0*%
%TD*%
%TA.AperFunction,ComponentPad*%
%ADD19R,1.800000X1.800000*%
%TD*%
%TA.AperFunction,ComponentPad*%
%ADD20C,1.800000*%
%TD*%
%TA.AperFunction,ComponentPad*%
%ADD21RoundRect,0.250000X0.750000X-0.750000X0.750000X0.750000X-0.750000X0.750000X-0.750000X-0.750000X0*%
%TD*%
%TA.AperFunction,ComponentPad*%
%ADD22RoundRect,0.249999X0.850001X-0.850001X0.850001X0.850001X-0.850001X0.850001X-0.850001X-0.850001X0*%
%TD*%
%TA.AperFunction,ComponentPad*%
%ADD23C,2.200000*%
%TD*%
%TA.AperFunction,ComponentPad*%
%ADD24C,1.440000*%
%TD*%
%TA.AperFunction,ViaPad*%
%ADD25C,0.600000*%
%TD*%
%TA.AperFunction,Conductor*%
%ADD26C,0.400000*%
%TD*%
G04 APERTURE END LIST*
D10*
%TO.P,Q2,3,S_3*%
%TO.N,GND*%
X102460000Y-57550000D03*
%TO.P,Q2,2,D_2*%
%TO.N,Output 3*%
X105000000Y-57550000D03*
D11*
%TO.P,Q2,1,G_1*%
%TO.N,Net-(U1-LO)*%
X107540000Y-57550000D03*
%TD*%
D12*
%TO.P,BT1,1,+_1*%
%TO.N,Net-(D1-A)*%
X47217500Y-34460000D03*
D13*
%TO.P,BT1,2,-_2*%
%TO.N,GND*%
X47217500Y-37000000D03*
%TD*%
D14*
%TO.P,D2,1,K_1*%
%TO.N,Net-(R4-Pad2)*%
X97500000Y-35000000D03*
D13*
%TO.P,D2,2,A_2*%
%TO.N,Net-(D3-K)*%
X94960000Y-35000000D03*
%TD*%
D15*
%TO.P,R9,1*%
%TO.N,Net-(Q1-G)*%
X82420000Y-47420000D03*
%TO.P,R9,2*%
%TO.N,Net-(Q2-G)*%
X87500000Y-47420000D03*
%TD*%
D11*
%TO.P,Q1,1,G_1*%
%TO.N,Net-(Q1-G)*%
X80040000Y-57500000D03*
D10*
%TO.P,Q1,2,D_2*%
%TO.N,Output 1*%
X77500000Y-57500000D03*
%TO.P,Q1,3,S_3*%
%TO.N,GND*%
X74960000Y-57500000D03*
%TD*%
D16*
%TO.P,C1,1*%
%TO.N,Net-(D1-A)*%
X45817621Y-47420000D03*
D17*
%TO.P,C1,2*%
%TO.N,GND*%
X48317621Y-47420000D03*
%TD*%
D15*
%TO.P,R5,1*%
%TO.N,Net-(R4-Pad2)*%
X74000000Y-47420000D03*
%TO.P,R5,2*%
%TO.N,Net-(U1-RT)*%
X79080000Y-47420000D03*
%TD*%
D16*
%TO.P,U1,1,VCC_1*%
%TO.N,Input*%
X71380000Y-33300000D03*
D17*
%TO.P,U1,2,RT_2*%
%TO.N,Net-(U1-RT)*%
X71380000Y-35840000D03*
%TO.P,U1,3,CT_3*%
%TO.N,Net-(U1-CT)*%
X71380000Y-38380000D03*
%TO.P,U1,4,COM_4*%
%TO.N,GND*%
X71380000Y-40920000D03*
%TO.P,U1,5,LO_5*%
%TO.N,Net-(Q2-G)*%
X79000000Y-40920000D03*
%TO.P,U1,6,VS_6*%
%TO.N,GND*%
X79000000Y-38380000D03*
%TO.P,U1,7,HO_7*%
%TO.N,Net-(U1-HO)*%
X79000000Y-35840000D03*
%TO.P,U1,8,VB_8*%
%TO.N,Input*%
X79000000Y-33300000D03*
%TD*%
D15*
%TO.P,R8,1*%
%TO.N,Net-(U1-LO)*%
X96000000Y-52000000D03*
%TO.P,R8,2*%
%TO.N,Net-(Q2-G)*%
X96000000Y-46920000D03*
%TD*%
D18*
%TO.P,C3,1*%
%TO.N,Input*%
X67000000Y-49420000D03*
D17*
%TO.P,C3,2*%
%TO.N,GND*%
X67000000Y-46920000D03*
%TD*%
D19*
%TO.P,D3,1,K_1*%
%TO.N,GND*%
X46000000Y-59920000D03*
D20*
%TO.P,D3,2,A_2*%
%TO.N,Net-(D3-A)*%
X48540000Y-59920000D03*
%TD*%
D15*
%TO.P,R7,1*%
%TO.N,Net-(Q1-G)*%
X85500000Y-37920000D03*
%TO.P,R7,2*%
%TO.N,Net-(U1-HO)*%
X85500000Y-32840000D03*
%TD*%
%TO.P,R6,1*%
%TO.N,Net-(Q2-G)*%
X84420000Y-42420000D03*
%TO.P,R6,2*%
%TO.N,Net-(U1-LO)*%
X89500000Y-42420000D03*
%TD*%
%TO.P,R3,1*%
%TO.N,Net-(D3-A)*%
X65000000Y-54920000D03*
%TO.P,R3,2*%
%TO.N,Input*%
X65000000Y-60000000D03*
%TD*%
D21*
%TO.P,T2,1,PR1_1*%
%TO.N,Net-(R4-Pad2)*%
X107000000Y-48500000D03*
D13*
%TO.P,T2,2,PM_2*%
%TO.N,Output 1*%
X107000000Y-45960000D03*
%TO.P,T2,3,PR2_3*%
%TO.N,Output 3*%
X107000000Y-43420000D03*
%TO.P,T2,4,S1_4*%
%TO.N,Net-(D3-K)*%
X107000000Y-40880000D03*
%TO.P,T2,5,S2_5*%
%TO.N,Input*%
X107000000Y-38340000D03*
%TD*%
D17*
%TO.P,C4,1*%
%TO.N,GND*%
X67500000Y-40500000D03*
%TO.P,C4,2*%
%TO.N,Net-(U1-CT)*%
X65000000Y-40500000D03*
%TD*%
%TO.P,C2,1*%
%TO.N,Net-(D1-A)*%
X57500000Y-45920000D03*
%TO.P,C2,2*%
%TO.N,GND*%
X57500000Y-43420000D03*
%TD*%
D22*
%TO.P,D1,1,K_1*%
%TO.N,Input*%
X57500000Y-61920000D03*
D23*
%TO.P,D1,2,A_2*%
%TO.N,Net-(D1-A)*%
X57500000Y-51760000D03*
%TD*%
D24*
%TO.P,R4,1,1_1*%
%TO.N,Net-(U1-CT)*%
X57000000Y-33420000D03*
%TO.P,R4,2,2_2*%
%TO.N,Net-(R4-Pad2)*%
X59540000Y-35960000D03*
%TO.P,R4,3,3_3*%
X62080000Y-33420000D03*
%TD*%
D25*
%TO.N,Net-(D3-A)*%
X65000000Y-54920000D03*
%TD*%
%TO.N,Net-(D3-K)*%
D26*
X96460000Y-33500000D02*
X94960000Y-35000000D01*
X109500000Y-35000000D02*
X108000000Y-33500000D01*
X108000000Y-33500000D02*
X96460000Y-33500000D01*
X109500000Y-38380000D02*
X109500000Y-35000000D01*
X107000000Y-40880000D02*
X109500000Y-38380000D01*
%TO.N,Net-(U1-LO)*%
X101990000Y-52000000D02*
X107540000Y-57550000D01*
X96000000Y-52000000D02*
X101990000Y-52000000D01*
%TO.N,Net-(Q2-G)*%
X90000000Y-40920000D02*
X96000000Y-46920000D01*
X79000000Y-40920000D02*
X90000000Y-40920000D01*
%TO.N,Net-(R4-Pad2)*%
X97500000Y-39000000D02*
X107000000Y-48500000D01*
X97500000Y-35000000D02*
X97500000Y-39000000D01*
%TO.N,Net-(U1-HO)*%
X79000000Y-35840000D02*
X82500000Y-35840000D01*
X82500000Y-35840000D02*
X85500000Y-32840000D01*
%TO.N,Net-(U1-RT)*%
X70180000Y-34640000D02*
X71380000Y-35840000D01*
X72206166Y-32100000D02*
X70553834Y-32100000D01*
X70553834Y-32100000D02*
X70180000Y-32473834D01*
X70180000Y-32473834D02*
X70180000Y-34640000D01*
X77800000Y-37693834D02*
X72206166Y-32100000D01*
X77800000Y-46140000D02*
X77800000Y-37693834D01*
X79080000Y-47420000D02*
X77800000Y-46140000D01*
%TO.N,Input*%
X75100000Y-47875635D02*
X73555635Y-49420000D01*
X73555635Y-49420000D02*
X67000000Y-49420000D01*
X75100000Y-37020000D02*
X75100000Y-47875635D01*
X71380000Y-33300000D02*
X75100000Y-37020000D01*
%TO.N,Net-(R4-Pad2)*%
X69920000Y-47420000D02*
X74000000Y-47420000D01*
X62080000Y-39580000D02*
X69920000Y-47420000D01*
X62080000Y-33420000D02*
X62080000Y-39580000D01*
X59540000Y-35960000D02*
X62080000Y-33420000D01*
%TO.N,Net-(D1-A)*%
X47217500Y-34834557D02*
X57500000Y-45117057D01*
X57500000Y-45117057D02*
X57500000Y-45920000D01*
X47217500Y-34460000D02*
X47217500Y-34834557D01*
X50157621Y-51760000D02*
X57500000Y-51760000D01*
X45817621Y-47420000D02*
X50157621Y-51760000D01*
%TD*%
%TA.AperFunction,Conductor*%
%TO.N,GND*%
G36*
X68452707Y-46963630D02*
G01*
X68503758Y-46994415D01*
X69375886Y-47866542D01*
X69428375Y-47919031D01*
X69473459Y-47964115D01*
X69588182Y-48040771D01*
X69588186Y-48040773D01*
X69588189Y-48040775D01*
X69662866Y-48071707D01*
X69662867Y-48071707D01*
X69662869Y-48071709D01*
X69715666Y-48093578D01*
X69715671Y-48093580D01*
X69715680Y-48093581D01*
X69715681Y-48093582D01*
X69742545Y-48098925D01*
X69742551Y-48098926D01*
X69742591Y-48098934D01*
X69832937Y-48116905D01*
X69851006Y-48120500D01*
X69851007Y-48120500D01*
X72961862Y-48120500D01*
X73028901Y-48140185D01*
X73062179Y-48171613D01*
X73072040Y-48185186D01*
X73084310Y-48202073D01*
X73217927Y-48335690D01*
X73308289Y-48401342D01*
X73350310Y-48431872D01*
X73392975Y-48487202D01*
X73398954Y-48556816D01*
X73366348Y-48618611D01*
X73365107Y-48619870D01*
X73345110Y-48639867D01*
X73301796Y-48683181D01*
X73240476Y-48716666D01*
X73214116Y-48719500D01*
X68380301Y-48719500D01*
X68313262Y-48699815D01*
X68267507Y-48647011D01*
X68262595Y-48634504D01*
X68234814Y-48550666D01*
X68142712Y-48401344D01*
X68018656Y-48277288D01*
X67925888Y-48220069D01*
X67869336Y-48185187D01*
X67869335Y-48185186D01*
X67869334Y-48185186D01*
X67807558Y-48164715D01*
X67750115Y-48124943D01*
X67723292Y-48060427D01*
X67722946Y-48037280D01*
X67725921Y-47999473D01*
X67046447Y-47320000D01*
X67052661Y-47320000D01*
X67154394Y-47292741D01*
X67245606Y-47240080D01*
X67320080Y-47165606D01*
X67372741Y-47074394D01*
X67400000Y-46972661D01*
X67400000Y-46966446D01*
X68079474Y-47645921D01*
X68111859Y-47601349D01*
X68204755Y-47419031D01*
X68267990Y-47224417D01*
X68293604Y-47062698D01*
X68323533Y-46999563D01*
X68382845Y-46962632D01*
X68452707Y-46963630D01*
G37*
%TD.AperFunction*%
%TA.AperFunction,Conductor*%
G36*
X115942539Y-25020185D02*
G01*
X115988294Y-25072989D01*
X115999500Y-25124500D01*
X115999500Y-68375500D01*
X115979815Y-68442539D01*
X115927011Y-68488294D01*
X115875500Y-68499500D01*
X40124500Y-68499500D01*
X40057461Y-68479815D01*
X40011706Y-68427011D01*
X40000500Y-68375500D01*
X40000500Y-58972155D01*
X44600000Y-58972155D01*
X44600000Y-59670000D01*
X45624722Y-59670000D01*
X45580667Y-59746306D01*
X45550000Y-59860756D01*
X45550000Y-59979244D01*
X45580667Y-60093694D01*
X45624722Y-60170000D01*
X44600000Y-60170000D01*
X44600000Y-60867844D01*
X44606401Y-60927372D01*
X44606403Y-60927379D01*
X44656645Y-61062086D01*
X44656649Y-61062093D01*
X44742809Y-61177187D01*
X44742812Y-61177190D01*
X44857906Y-61263350D01*
X44857913Y-61263354D01*
X44992620Y-61313596D01*
X44992627Y-61313598D01*
X45052155Y-61319999D01*
X45052172Y-61320000D01*
X45750000Y-61320000D01*
X45750000Y-60295277D01*
X45826306Y-60339333D01*
X45940756Y-60370000D01*
X46059244Y-60370000D01*
X46173694Y-60339333D01*
X46250000Y-60295277D01*
X46250000Y-61320000D01*
X46947828Y-61320000D01*
X46947844Y-61319999D01*
X47007372Y-61313598D01*
X47007379Y-61313596D01*
X47142086Y-61263354D01*
X47142093Y-61263350D01*
X47257187Y-61177190D01*
X47257190Y-61177187D01*
X47343350Y-61062093D01*
X47343354Y-61062086D01*
X47373213Y-60982031D01*
X47415084Y-60926097D01*
X47480548Y-60901680D01*
X47548821Y-60916531D01*
X47577076Y-60937683D01*
X47627636Y-60988243D01*
X47627641Y-60988247D01*
X47783192Y-61101260D01*
X47805978Y-61117815D01*
X47910241Y-61170940D01*
X48002393Y-61217895D01*
X48002396Y-61217896D01*
X48107221Y-61251955D01*
X48212049Y-61286015D01*
X48429778Y-61320500D01*
X48429779Y-61320500D01*
X48650221Y-61320500D01*
X48650222Y-61320500D01*
X48867951Y-61286015D01*
X49077606Y-61217895D01*
X49274022Y-61117815D01*
X49408678Y-61019982D01*
X55899500Y-61019982D01*
X55899500Y-62820017D01*
X55910000Y-62922796D01*
X55910001Y-62922798D01*
X55965186Y-63089335D01*
X56057288Y-63238656D01*
X56181344Y-63362712D01*
X56330665Y-63454814D01*
X56497202Y-63509999D01*
X56599990Y-63520500D01*
X56599995Y-63520500D01*
X58400005Y-63520500D01*
X58400010Y-63520500D01*
X58502798Y-63509999D01*
X58669335Y-63454814D01*
X58818656Y-63362712D01*
X58942712Y-63238656D01*
X59034814Y-63089335D01*
X59089999Y-62922798D01*
X59100500Y-62820010D01*
X59100500Y-61019990D01*
X59089999Y-60917202D01*
X59034814Y-60750665D01*
X58942712Y-60601344D01*
X58818656Y-60477288D01*
X58669335Y-60385186D01*
X58502798Y-60330001D01*
X58502796Y-60330000D01*
X58400017Y-60319500D01*
X58400010Y-60319500D01*
X56599990Y-60319500D01*
X56599982Y-60319500D01*
X56497203Y-60330000D01*
X56497202Y-60330001D01*
X56414669Y-60357349D01*
X56330667Y-60385185D01*
X56330662Y-60385187D01*
X56181342Y-60477289D01*
X56057289Y-60601342D01*
X55965187Y-60750662D01*
X55965186Y-60750665D01*
X55910001Y-60917202D01*
X55910001Y-60917203D01*
X55910000Y-60917203D01*
X55899500Y-61019982D01*
X49408678Y-61019982D01*
X49452365Y-60988242D01*
X49608242Y-60832365D01*
X49737815Y-60654022D01*
X49837895Y-60457606D01*
X49906015Y-60247951D01*
X49940500Y-60030222D01*
X49940500Y-59905513D01*
X63799500Y-59905513D01*
X63799500Y-60094486D01*
X63829059Y-60281118D01*
X63887454Y-60460836D01*
X63959046Y-60601342D01*
X63973240Y-60629199D01*
X64084310Y-60782073D01*
X64217927Y-60915690D01*
X64370801Y-61026760D01*
X64440146Y-61062093D01*
X64539163Y-61112545D01*
X64539165Y-61112545D01*
X64539168Y-61112547D01*
X64635497Y-61143846D01*
X64718881Y-61170940D01*
X64905514Y-61200500D01*
X64905519Y-61200500D01*
X65094486Y-61200500D01*
X65281118Y-61170940D01*
X65460832Y-61112547D01*
X65629199Y-61026760D01*
X65782073Y-60915690D01*
X65915690Y-60782073D01*
X66026760Y-60629199D01*
X66112547Y-60460832D01*
X66170940Y-60281118D01*
X66184373Y-60196306D01*
X66200500Y-60094486D01*
X66200500Y-59905513D01*
X66170940Y-59718881D01*
X66129729Y-59592049D01*
X66112547Y-59539168D01*
X66112545Y-59539165D01*
X66112545Y-59539163D01*
X66032668Y-59382396D01*
X66026760Y-59370801D01*
X65915690Y-59217927D01*
X65782073Y-59084310D01*
X65629199Y-58973240D01*
X65627070Y-58972155D01*
X65460836Y-58887454D01*
X65281118Y-58829059D01*
X65094486Y-58799500D01*
X65094481Y-58799500D01*
X64905519Y-58799500D01*
X64905514Y-58799500D01*
X64718881Y-58829059D01*
X64539163Y-58887454D01*
X64370800Y-58973240D01*
X64313706Y-59014722D01*
X64217927Y-59084310D01*
X64217925Y-59084312D01*
X64217924Y-59084312D01*
X64084312Y-59217924D01*
X64084312Y-59217925D01*
X64084310Y-59217927D01*
X64036610Y-59283579D01*
X63973240Y-59370800D01*
X63887454Y-59539163D01*
X63829059Y-59718881D01*
X63799500Y-59905513D01*
X49940500Y-59905513D01*
X49940500Y-59809778D01*
X49906015Y-59592049D01*
X49871955Y-59487221D01*
X49837896Y-59382396D01*
X49837895Y-59382393D01*
X49803237Y-59314375D01*
X49737815Y-59185978D01*
X49663951Y-59084312D01*
X49608247Y-59007641D01*
X49608243Y-59007636D01*
X49452363Y-58851756D01*
X49452358Y-58851752D01*
X49274025Y-58722187D01*
X49274024Y-58722186D01*
X49274022Y-58722185D01*
X49199069Y-58683994D01*
X49077606Y-58622104D01*
X49077603Y-58622103D01*
X48867952Y-58553985D01*
X48759086Y-58536742D01*
X48650222Y-58519500D01*
X48429778Y-58519500D01*
X48357201Y-58530995D01*
X48212047Y-58553985D01*
X48002396Y-58622103D01*
X48002393Y-58622104D01*
X47805974Y-58722187D01*
X47627641Y-58851752D01*
X47627636Y-58851756D01*
X47577075Y-58902317D01*
X47515752Y-58935801D01*
X47446060Y-58930816D01*
X47390127Y-58888945D01*
X47373213Y-58857968D01*
X47343354Y-58777913D01*
X47343350Y-58777906D01*
X47257190Y-58662812D01*
X47257187Y-58662809D01*
X47142093Y-58576649D01*
X47142086Y-58576645D01*
X47007379Y-58526403D01*
X47007372Y-58526401D01*
X46947844Y-58520000D01*
X46250000Y-58520000D01*
X46250000Y-59544722D01*
X46173694Y-59500667D01*
X46059244Y-59470000D01*
X45940756Y-59470000D01*
X45826306Y-59500667D01*
X45750000Y-59544722D01*
X45750000Y-58520000D01*
X45052155Y-58520000D01*
X44992627Y-58526401D01*
X44992620Y-58526403D01*
X44857913Y-58576645D01*
X44857906Y-58576649D01*
X44742812Y-58662809D01*
X44742809Y-58662812D01*
X44656649Y-58777906D01*
X44656645Y-58777913D01*
X44606403Y-58912620D01*
X44606401Y-58912627D01*
X44600000Y-58972155D01*
X40000500Y-58972155D01*
X40000500Y-57250000D01*
X73521468Y-57250000D01*
X74469252Y-57250000D01*
X74447482Y-57287708D01*
X74410000Y-57427591D01*
X74410000Y-57572409D01*
X74447482Y-57712292D01*
X74469252Y-57750000D01*
X73521468Y-57750000D01*
X73543265Y-57887628D01*
X73613917Y-58105070D01*
X73717711Y-58308776D01*
X73852097Y-58493742D01*
X74013757Y-58655402D01*
X74198723Y-58789788D01*
X74402429Y-58893582D01*
X74619871Y-58964234D01*
X74710000Y-58978509D01*
X74710000Y-57990747D01*
X74747708Y-58012518D01*
X74887591Y-58050000D01*
X75032409Y-58050000D01*
X75172292Y-58012518D01*
X75210000Y-57990747D01*
X75210000Y-58978508D01*
X75300128Y-58964234D01*
X75517570Y-58893582D01*
X75721276Y-58789788D01*
X75906242Y-58655402D01*
X76067905Y-58493739D01*
X76129371Y-58409137D01*
X76184701Y-58366470D01*
X76254314Y-58360491D01*
X76316109Y-58393096D01*
X76330007Y-58409134D01*
X76391714Y-58494066D01*
X76553434Y-58655786D01*
X76738462Y-58790217D01*
X76870599Y-58857544D01*
X76942244Y-58894049D01*
X77159751Y-58964721D01*
X77159752Y-58964721D01*
X77159755Y-58964722D01*
X77385646Y-59000500D01*
X77385647Y-59000500D01*
X77614353Y-59000500D01*
X77614354Y-59000500D01*
X77840245Y-58964722D01*
X77840248Y-58964721D01*
X77840249Y-58964721D01*
X78057755Y-58894049D01*
X78057755Y-58894048D01*
X78057758Y-58894048D01*
X78261538Y-58790217D01*
X78444245Y-58657472D01*
X78510046Y-58633994D01*
X78578100Y-58649819D01*
X78626795Y-58699924D01*
X78633308Y-58714459D01*
X78643702Y-58742328D01*
X78643706Y-58742335D01*
X78729952Y-58857544D01*
X78729955Y-58857547D01*
X78845164Y-58943793D01*
X78845171Y-58943797D01*
X78980017Y-58994091D01*
X78980016Y-58994091D01*
X78986944Y-58994835D01*
X79039627Y-59000500D01*
X81040372Y-59000499D01*
X81099983Y-58994091D01*
X81234831Y-58943796D01*
X81350046Y-58857546D01*
X81436296Y-58742331D01*
X81486591Y-58607483D01*
X81493000Y-58547873D01*
X81492999Y-56452128D01*
X81486774Y-56394216D01*
X81486591Y-56392516D01*
X81436297Y-56257671D01*
X81436293Y-56257664D01*
X81350047Y-56142455D01*
X81350044Y-56142452D01*
X81234835Y-56056206D01*
X81234828Y-56056202D01*
X81099982Y-56005908D01*
X81099983Y-56005908D01*
X81040383Y-55999501D01*
X81040381Y-55999500D01*
X81040373Y-55999500D01*
X81040364Y-55999500D01*
X79039629Y-55999500D01*
X79039623Y-55999501D01*
X78980016Y-56005908D01*
X78845171Y-56056202D01*
X78845164Y-56056206D01*
X78729955Y-56142452D01*
X78729952Y-56142455D01*
X78643706Y-56257664D01*
X78643703Y-56257670D01*
X78633308Y-56285541D01*
X78591436Y-56341474D01*
X78525972Y-56365891D01*
X78457699Y-56351039D01*
X78444250Y-56342531D01*
X78261538Y-56209783D01*
X78227524Y-56192452D01*
X78057755Y-56105950D01*
X77840248Y-56035278D01*
X77654812Y-56005908D01*
X77614354Y-55999500D01*
X77385646Y-55999500D01*
X77345188Y-56005908D01*
X77159753Y-56035278D01*
X77159750Y-56035278D01*
X76942244Y-56105950D01*
X76738461Y-56209783D01*
X76672551Y-56257670D01*
X76553434Y-56344214D01*
X76553432Y-56344216D01*
X76553431Y-56344216D01*
X76391716Y-56505931D01*
X76391709Y-56505940D01*
X76330007Y-56590864D01*
X76274677Y-56633530D01*
X76205063Y-56639508D01*
X76143269Y-56606901D01*
X76129372Y-56590863D01*
X76067907Y-56506263D01*
X76067902Y-56506257D01*
X75906242Y-56344597D01*
X75721276Y-56210211D01*
X75517568Y-56106417D01*
X75300124Y-56035765D01*
X75210000Y-56021490D01*
X75210000Y-57009252D01*
X75172292Y-56987482D01*
X75032409Y-56950000D01*
X74887591Y-56950000D01*
X74747708Y-56987482D01*
X74710000Y-57009252D01*
X74710000Y-56021490D01*
X74709999Y-56021490D01*
X74619875Y-56035765D01*
X74402431Y-56106417D01*
X74198723Y-56210211D01*
X74013757Y-56344597D01*
X73852097Y-56506257D01*
X73717711Y-56691223D01*
X73613917Y-56894929D01*
X73543265Y-57112371D01*
X73521468Y-57250000D01*
X40000500Y-57250000D01*
X40000500Y-54825513D01*
X63799500Y-54825513D01*
X63799500Y-55014486D01*
X63829059Y-55201118D01*
X63887454Y-55380836D01*
X63973240Y-55549199D01*
X64084310Y-55702073D01*
X64217927Y-55835690D01*
X64370801Y-55946760D01*
X64448044Y-55986117D01*
X64539163Y-56032545D01*
X64539165Y-56032545D01*
X64539168Y-56032547D01*
X64635497Y-56063846D01*
X64718881Y-56090940D01*
X64905514Y-56120500D01*
X64905519Y-56120500D01*
X65094486Y-56120500D01*
X65281118Y-56090940D01*
X65298544Y-56085278D01*
X65460832Y-56032547D01*
X65629199Y-55946760D01*
X65782073Y-55835690D01*
X65915690Y-55702073D01*
X66026760Y-55549199D01*
X66112547Y-55380832D01*
X66170940Y-55201118D01*
X66200500Y-55014486D01*
X66200500Y-54825513D01*
X66170940Y-54638881D01*
X66112545Y-54459163D01*
X66026759Y-54290800D01*
X65915690Y-54137927D01*
X65782073Y-54004310D01*
X65629199Y-53893240D01*
X65460836Y-53807454D01*
X65281118Y-53749059D01*
X65094486Y-53719500D01*
X65094481Y-53719500D01*
X64905519Y-53719500D01*
X64905514Y-53719500D01*
X64718881Y-53749059D01*
X64539163Y-53807454D01*
X64370800Y-53893240D01*
X64283579Y-53956610D01*
X64217927Y-54004310D01*
X64217925Y-54004312D01*
X64217924Y-54004312D01*
X64084312Y-54137924D01*
X64084312Y-54137925D01*
X64084310Y-54137927D01*
X64036610Y-54203579D01*
X63973240Y-54290800D01*
X63887454Y-54459163D01*
X63829059Y-54638881D01*
X63799500Y-54825513D01*
X40000500Y-54825513D01*
X40000500Y-46819983D01*
X44517121Y-46819983D01*
X44517121Y-48020001D01*
X44517122Y-48020018D01*
X44527621Y-48122796D01*
X44527622Y-48122799D01*
X44555672Y-48207446D01*
X44582807Y-48289334D01*
X44674909Y-48438656D01*
X44798965Y-48562712D01*
X44948287Y-48654814D01*
X45114824Y-48709999D01*
X45217612Y-48720500D01*
X46076101Y-48720499D01*
X46143140Y-48740183D01*
X46163782Y-48756818D01*
X49711074Y-52304111D01*
X49711075Y-52304112D01*
X49825813Y-52380777D01*
X49953288Y-52433578D01*
X49953293Y-52433580D01*
X49953297Y-52433580D01*
X49953298Y-52433581D01*
X50088624Y-52460500D01*
X50088627Y-52460500D01*
X50088628Y-52460500D01*
X55984652Y-52460500D01*
X56051691Y-52480185D01*
X56095137Y-52528205D01*
X56131132Y-52598848D01*
X56279201Y-52802649D01*
X56279205Y-52802654D01*
X56457345Y-52980794D01*
X56457350Y-52980798D01*
X56520612Y-53026760D01*
X56661155Y-53128870D01*
X56801737Y-53200500D01*
X56885616Y-53243239D01*
X56885618Y-53243239D01*
X56885621Y-53243241D01*
X57125215Y-53321090D01*
X57374038Y-53360500D01*
X57374039Y-53360500D01*
X57625961Y-53360500D01*
X57625962Y-53360500D01*
X57874785Y-53321090D01*
X58114379Y-53243241D01*
X58338845Y-53128870D01*
X58542656Y-52980793D01*
X58720793Y-52802656D01*
X58868870Y-52598845D01*
X58983241Y-52374379D01*
X59061090Y-52134785D01*
X59097403Y-51905513D01*
X94799500Y-51905513D01*
X94799500Y-52094486D01*
X94829059Y-52281118D01*
X94887454Y-52460836D01*
X94921781Y-52528205D01*
X94973240Y-52629199D01*
X95084310Y-52782073D01*
X95217927Y-52915690D01*
X95370801Y-53026760D01*
X95450347Y-53067290D01*
X95539163Y-53112545D01*
X95539165Y-53112545D01*
X95539168Y-53112547D01*
X95589405Y-53128870D01*
X95718881Y-53170940D01*
X95905514Y-53200500D01*
X95905519Y-53200500D01*
X96094486Y-53200500D01*
X96281118Y-53170940D01*
X96460832Y-53112547D01*
X96629199Y-53026760D01*
X96782073Y-52915690D01*
X96915690Y-52782073D01*
X96937821Y-52751613D01*
X96993152Y-52708948D01*
X97038138Y-52700500D01*
X101648481Y-52700500D01*
X101715520Y-52720185D01*
X101736162Y-52736819D01*
X104854445Y-55855102D01*
X104887930Y-55916425D01*
X104882946Y-55986117D01*
X104841074Y-56042050D01*
X104786163Y-56065256D01*
X104659751Y-56085278D01*
X104659750Y-56085278D01*
X104442244Y-56155950D01*
X104238461Y-56259783D01*
X104172550Y-56307671D01*
X104053434Y-56394214D01*
X104053432Y-56394216D01*
X104053431Y-56394216D01*
X103891716Y-56555931D01*
X103891709Y-56555940D01*
X103830007Y-56640864D01*
X103774677Y-56683530D01*
X103705063Y-56689508D01*
X103643269Y-56656901D01*
X103629372Y-56640863D01*
X103567907Y-56556263D01*
X103567902Y-56556257D01*
X103406242Y-56394597D01*
X103221276Y-56260211D01*
X103017568Y-56156417D01*
X102800124Y-56085765D01*
X102710000Y-56071490D01*
X102710000Y-57059252D01*
X102672292Y-57037482D01*
X102532409Y-57000000D01*
X102387591Y-57000000D01*
X102247708Y-57037482D01*
X102210000Y-57059252D01*
X102210000Y-56071490D01*
X102209999Y-56071490D01*
X102119875Y-56085765D01*
X101902431Y-56156417D01*
X101698723Y-56260211D01*
X101513757Y-56394597D01*
X101352097Y-56556257D01*
X101217711Y-56741223D01*
X101113917Y-56944929D01*
X101043265Y-57162371D01*
X101021468Y-57300000D01*
X101969252Y-57300000D01*
X101947482Y-57337708D01*
X101910000Y-57477591D01*
X101910000Y-57622409D01*
X101947482Y-57762292D01*
X101969252Y-57800000D01*
X101021468Y-57800000D01*
X101043265Y-57937628D01*
X101113917Y-58155070D01*
X101217711Y-58358776D01*
X101352097Y-58543742D01*
X101513757Y-58705402D01*
X101698723Y-58839788D01*
X101902429Y-58943582D01*
X102119871Y-59014234D01*
X102210000Y-59028509D01*
X102210000Y-58040747D01*
X102247708Y-58062518D01*
X102387591Y-58100000D01*
X102532409Y-58100000D01*
X102672292Y-58062518D01*
X102710000Y-58040747D01*
X102710000Y-59028508D01*
X102800128Y-59014234D01*
X103017570Y-58943582D01*
X103221276Y-58839788D01*
X103406242Y-58705402D01*
X103567905Y-58543739D01*
X103629371Y-58459137D01*
X103684701Y-58416470D01*
X103754314Y-58410491D01*
X103816109Y-58443096D01*
X103830007Y-58459134D01*
X103891714Y-58544066D01*
X104053434Y-58705786D01*
X104238462Y-58840217D01*
X104370599Y-58907544D01*
X104442244Y-58944049D01*
X104659751Y-59014721D01*
X104659752Y-59014721D01*
X104659755Y-59014722D01*
X104885646Y-59050500D01*
X104885647Y-59050500D01*
X105114353Y-59050500D01*
X105114354Y-59050500D01*
X105340245Y-59014722D01*
X105340248Y-59014721D01*
X105340249Y-59014721D01*
X105557755Y-58944049D01*
X105557755Y-58944048D01*
X105557758Y-58944048D01*
X105761538Y-58840217D01*
X105944245Y-58707472D01*
X106010046Y-58683994D01*
X106078100Y-58699819D01*
X106126795Y-58749924D01*
X106133308Y-58764459D01*
X106143702Y-58792328D01*
X106143706Y-58792335D01*
X106229952Y-58907544D01*
X106229955Y-58907547D01*
X106345164Y-58993793D01*
X106345171Y-58993797D01*
X106480017Y-59044091D01*
X106480016Y-59044091D01*
X106486944Y-59044835D01*
X106539627Y-59050500D01*
X108540372Y-59050499D01*
X108599983Y-59044091D01*
X108734831Y-58993796D01*
X108850046Y-58907546D01*
X108936296Y-58792331D01*
X108986591Y-58657483D01*
X108993000Y-58597873D01*
X108992999Y-56502128D01*
X108986591Y-56442517D01*
X108967942Y-56392517D01*
X108936297Y-56307671D01*
X108936293Y-56307664D01*
X108850047Y-56192455D01*
X108850044Y-56192452D01*
X108734835Y-56106206D01*
X108734828Y-56106202D01*
X108599982Y-56055908D01*
X108599983Y-56055908D01*
X108540383Y-56049501D01*
X108540381Y-56049500D01*
X108540373Y-56049500D01*
X108540365Y-56049500D01*
X107081519Y-56049500D01*
X107014480Y-56029815D01*
X106993838Y-56013181D01*
X102436546Y-51455888D01*
X102436545Y-51455887D01*
X102321807Y-51379222D01*
X102194332Y-51326421D01*
X102194322Y-51326418D01*
X102058996Y-51299500D01*
X102058994Y-51299500D01*
X102058993Y-51299500D01*
X97038138Y-51299500D01*
X96971099Y-51279815D01*
X96937821Y-51248387D01*
X96915690Y-51217927D01*
X96782075Y-51084312D01*
X96782073Y-51084310D01*
X96629199Y-50973240D01*
X96460836Y-50887454D01*
X96281118Y-50829059D01*
X96094486Y-50799500D01*
X96094481Y-50799500D01*
X95905519Y-50799500D01*
X95905514Y-50799500D01*
X95718881Y-50829059D01*
X95539163Y-50887454D01*
X95370800Y-50973240D01*
X95345262Y-50991795D01*
X95217927Y-51084310D01*
X95217925Y-51084312D01*
X95217924Y-51084312D01*
X95084312Y-51217924D01*
X95084312Y-51217925D01*
X95084310Y-51217927D01*
X95039346Y-51279815D01*
X94973240Y-51370800D01*
X94887454Y-51539163D01*
X94829059Y-51718881D01*
X94799500Y-51905513D01*
X59097403Y-51905513D01*
X59100500Y-51885962D01*
X59100500Y-51634038D01*
X59061090Y-51385215D01*
X58983241Y-51145621D01*
X58983239Y-51145618D01*
X58983239Y-51145616D01*
X58920855Y-51023181D01*
X58868870Y-50921155D01*
X58780483Y-50799500D01*
X58720798Y-50717350D01*
X58720794Y-50717345D01*
X58542654Y-50539205D01*
X58542649Y-50539201D01*
X58338848Y-50391132D01*
X58338847Y-50391131D01*
X58338845Y-50391130D01*
X58268747Y-50355413D01*
X58114383Y-50276760D01*
X57874785Y-50198910D01*
X57625962Y-50159500D01*
X57374038Y-50159500D01*
X57249626Y-50179205D01*
X57125214Y-50198910D01*
X56885616Y-50276760D01*
X56661151Y-50391132D01*
X56457350Y-50539201D01*
X56457345Y-50539205D01*
X56279205Y-50717345D01*
X56279201Y-50717350D01*
X56131132Y-50921151D01*
X56095137Y-50991795D01*
X56047162Y-51042591D01*
X55984652Y-51059500D01*
X50499140Y-51059500D01*
X50432101Y-51039815D01*
X50411459Y-51023181D01*
X48319959Y-48931681D01*
X48286474Y-48870358D01*
X48291458Y-48800666D01*
X48333330Y-48744733D01*
X48398794Y-48720316D01*
X48407640Y-48720000D01*
X48419938Y-48720000D01*
X48622038Y-48687990D01*
X48816652Y-48624755D01*
X48998970Y-48531859D01*
X49043542Y-48499474D01*
X48364067Y-47820000D01*
X48370282Y-47820000D01*
X48472015Y-47792741D01*
X48563227Y-47740080D01*
X48637701Y-47665606D01*
X48690362Y-47574394D01*
X48717621Y-47472661D01*
X48717621Y-47466447D01*
X49397095Y-48145921D01*
X49429480Y-48101349D01*
X49522376Y-47919031D01*
X49585611Y-47724417D01*
X49617621Y-47522317D01*
X49617621Y-47317682D01*
X49585611Y-47115582D01*
X49522376Y-46920968D01*
X49429480Y-46738650D01*
X49397095Y-46694077D01*
X49397095Y-46694076D01*
X48717621Y-47373551D01*
X48717621Y-47367339D01*
X48690362Y-47265606D01*
X48637701Y-47174394D01*
X48563227Y-47099920D01*
X48472015Y-47047259D01*
X48370282Y-47020000D01*
X48364067Y-47020000D01*
X49043543Y-46340524D01*
X49043542Y-46340523D01*
X48998980Y-46308147D01*
X48998971Y-46308141D01*
X48816652Y-46215244D01*
X48622038Y-46152009D01*
X48419938Y-46120000D01*
X48215304Y-46120000D01*
X48013203Y-46152009D01*
X47818589Y-46215244D01*
X47636265Y-46308143D01*
X47591698Y-46340523D01*
X47591698Y-46340524D01*
X48271175Y-47020000D01*
X48264960Y-47020000D01*
X48163227Y-47047259D01*
X48072015Y-47099920D01*
X47997541Y-47174394D01*
X47944880Y-47265606D01*
X47917621Y-47367339D01*
X47917621Y-47373553D01*
X47238145Y-46694077D01*
X47200340Y-46697053D01*
X47131962Y-46682689D01*
X47082205Y-46633638D01*
X47079731Y-46628949D01*
X47075722Y-46620942D01*
X47052435Y-46550666D01*
X46960333Y-46401344D01*
X46836277Y-46277288D01*
X46735687Y-46215244D01*
X46686957Y-46185187D01*
X46686952Y-46185185D01*
X46685483Y-46184698D01*
X46520418Y-46130001D01*
X46520416Y-46130000D01*
X46417631Y-46119500D01*
X45217619Y-46119500D01*
X45217602Y-46119501D01*
X45114824Y-46130000D01*
X45114821Y-46130001D01*
X44948289Y-46185185D01*
X44948284Y-46185187D01*
X44798963Y-46277289D01*
X44674910Y-46401342D01*
X44582808Y-46550663D01*
X44582806Y-46550668D01*
X44566486Y-46599920D01*
X44527622Y-46717203D01*
X44527622Y-46717204D01*
X44527621Y-46717204D01*
X44517121Y-46819983D01*
X40000500Y-46819983D01*
X40000500Y-33659983D01*
X45717000Y-33659983D01*
X45717000Y-35260001D01*
X45717001Y-35260018D01*
X45727500Y-35362796D01*
X45727501Y-35362799D01*
X45782685Y-35529331D01*
X45782687Y-35529336D01*
X45786468Y-35535466D01*
X45874788Y-35678656D01*
X45998844Y-35802712D01*
X46148166Y-35894814D01*
X46314703Y-35949999D01*
X46417491Y-35960500D01*
X46480192Y-35960499D01*
X46547229Y-35980183D01*
X46567872Y-35996818D01*
X47006441Y-36435387D01*
X46985909Y-36440889D01*
X46849092Y-36519881D01*
X46737381Y-36631592D01*
X46658389Y-36768409D01*
X46652887Y-36788941D01*
X45994840Y-36130894D01*
X45934584Y-36213830D01*
X45827397Y-36424197D01*
X45754434Y-36648752D01*
X45717500Y-36881947D01*
X45717500Y-37118052D01*
X45754434Y-37351247D01*
X45827397Y-37575802D01*
X45934587Y-37786174D01*
X45994838Y-37869104D01*
X45994840Y-37869105D01*
X46652887Y-37211058D01*
X46658389Y-37231591D01*
X46737381Y-37368408D01*
X46849092Y-37480119D01*
X46985909Y-37559111D01*
X47006440Y-37564612D01*
X46348393Y-38222658D01*
X46431328Y-38282914D01*
X46641697Y-38390102D01*
X46866252Y-38463065D01*
X46866251Y-38463065D01*
X47099448Y-38500000D01*
X47335552Y-38500000D01*
X47568747Y-38463065D01*
X47793302Y-38390102D01*
X48003663Y-38282918D01*
X48003669Y-38282914D01*
X48086604Y-38222658D01*
X48086605Y-38222658D01*
X47428558Y-37564612D01*
X47449091Y-37559111D01*
X47585908Y-37480119D01*
X47697619Y-37368408D01*
X47776611Y-37231591D01*
X47782112Y-37211058D01*
X48440158Y-37869105D01*
X48440158Y-37869104D01*
X48500414Y-37786169D01*
X48500418Y-37786163D01*
X48607602Y-37575802D01*
X48633478Y-37496167D01*
X48672915Y-37438491D01*
X48737274Y-37411293D01*
X48806120Y-37423208D01*
X48839090Y-37446804D01*
X56415066Y-45022780D01*
X56448551Y-45084103D01*
X56443567Y-45153795D01*
X56427705Y-45183344D01*
X56387712Y-45238391D01*
X56294781Y-45420776D01*
X56231522Y-45615465D01*
X56199500Y-45817648D01*
X56199500Y-46022351D01*
X56231522Y-46224534D01*
X56294781Y-46419223D01*
X56354279Y-46535992D01*
X56387712Y-46601609D01*
X56387715Y-46601613D01*
X56508028Y-46767213D01*
X56652786Y-46911971D01*
X56793882Y-47014481D01*
X56818390Y-47032287D01*
X56901030Y-47074394D01*
X57000776Y-47125218D01*
X57000778Y-47125218D01*
X57000781Y-47125220D01*
X57099473Y-47157287D01*
X57195465Y-47188477D01*
X57275277Y-47201118D01*
X57397648Y-47220500D01*
X57397649Y-47220500D01*
X57602351Y-47220500D01*
X57602352Y-47220500D01*
X57804534Y-47188477D01*
X57999219Y-47125220D01*
X58181610Y-47032287D01*
X58277483Y-46962632D01*
X58347213Y-46911971D01*
X58347215Y-46911968D01*
X58347219Y-46911966D01*
X58491966Y-46767219D01*
X58509870Y-46742576D01*
X58511793Y-46739930D01*
X58563771Y-46668387D01*
X58612287Y-46601610D01*
X58705220Y-46419219D01*
X58768477Y-46224534D01*
X58800500Y-46022352D01*
X58800500Y-45817648D01*
X58768477Y-45615466D01*
X58766256Y-45608632D01*
X58705218Y-45420776D01*
X58671503Y-45354607D01*
X58612287Y-45238390D01*
X58550826Y-45153795D01*
X58491971Y-45072786D01*
X58347213Y-44928028D01*
X58181611Y-44807713D01*
X58140962Y-44787001D01*
X58094154Y-44745405D01*
X58087377Y-44735262D01*
X58066501Y-44668584D01*
X58084987Y-44601205D01*
X58134189Y-44555888D01*
X58181347Y-44531861D01*
X58225921Y-44499474D01*
X57546446Y-43820000D01*
X57552661Y-43820000D01*
X57654394Y-43792741D01*
X57745606Y-43740080D01*
X57820080Y-43665606D01*
X57872741Y-43574394D01*
X57900000Y-43472661D01*
X57900000Y-43466447D01*
X58579474Y-44145921D01*
X58611859Y-44101349D01*
X58704755Y-43919031D01*
X58767990Y-43724417D01*
X58800000Y-43522317D01*
X58800000Y-43317682D01*
X58767990Y-43115582D01*
X58704755Y-42920968D01*
X58611859Y-42738650D01*
X58579474Y-42694077D01*
X58579474Y-42694076D01*
X57900000Y-43373551D01*
X57900000Y-43367339D01*
X57872741Y-43265606D01*
X57820080Y-43174394D01*
X57745606Y-43099920D01*
X57654394Y-43047259D01*
X57552661Y-43020000D01*
X57546446Y-43020000D01*
X58225922Y-42340524D01*
X58225921Y-42340523D01*
X58181359Y-42308147D01*
X58181350Y-42308141D01*
X57999031Y-42215244D01*
X57804417Y-42152009D01*
X57602317Y-42120000D01*
X57397683Y-42120000D01*
X57195582Y-42152009D01*
X57000968Y-42215244D01*
X56818644Y-42308143D01*
X56774077Y-42340523D01*
X56774077Y-42340524D01*
X57453554Y-43020000D01*
X57447339Y-43020000D01*
X57345606Y-43047259D01*
X57254394Y-43099920D01*
X57179920Y-43174394D01*
X57127259Y-43265606D01*
X57100000Y-43367339D01*
X57100000Y-43373553D01*
X56420524Y-42694077D01*
X56420523Y-42694077D01*
X56388143Y-42738645D01*
X56388140Y-42738649D01*
X56372497Y-42769350D01*
X56324521Y-42820145D01*
X56256700Y-42836938D01*
X56190566Y-42814399D01*
X56174333Y-42800733D01*
X49237545Y-35863945D01*
X58319500Y-35863945D01*
X58319500Y-36056054D01*
X58349553Y-36245802D01*
X58408916Y-36428506D01*
X58470675Y-36549714D01*
X58496135Y-36599681D01*
X58609055Y-36755102D01*
X58744898Y-36890945D01*
X58900319Y-37003865D01*
X59003929Y-37056657D01*
X59071493Y-37091083D01*
X59129715Y-37110000D01*
X59254199Y-37150447D01*
X59443945Y-37180500D01*
X59443946Y-37180500D01*
X59636054Y-37180500D01*
X59636055Y-37180500D01*
X59825801Y-37150447D01*
X60008509Y-37091082D01*
X60179681Y-37003865D01*
X60335102Y-36890945D01*
X60470945Y-36755102D01*
X60583865Y-36599681D01*
X60671082Y-36428509D01*
X60730447Y-36245801D01*
X60760500Y-36056055D01*
X60760500Y-35863945D01*
X60752090Y-35810849D01*
X60761044Y-35741560D01*
X60786879Y-35703776D01*
X61167819Y-35322837D01*
X61229142Y-35289352D01*
X61298834Y-35294336D01*
X61354767Y-35336208D01*
X61379184Y-35401672D01*
X61379500Y-35410518D01*
X61379500Y-39511006D01*
X61379500Y-39648994D01*
X61379500Y-39648996D01*
X61379499Y-39648996D01*
X61406418Y-39784322D01*
X61406421Y-39784332D01*
X61459222Y-39911807D01*
X61535887Y-40026545D01*
X61535888Y-40026546D01*
X66925584Y-45416241D01*
X66959069Y-45477564D01*
X66954085Y-45547256D01*
X66912213Y-45603189D01*
X66857302Y-45626395D01*
X66695581Y-45652010D01*
X66500968Y-45715244D01*
X66318644Y-45808143D01*
X66274077Y-45840523D01*
X66274077Y-45840524D01*
X66953554Y-46520000D01*
X66947339Y-46520000D01*
X66845606Y-46547259D01*
X66754394Y-46599920D01*
X66679920Y-46674394D01*
X66627259Y-46765606D01*
X66600000Y-46867339D01*
X66600000Y-46873553D01*
X65920524Y-46194077D01*
X65920523Y-46194077D01*
X65888143Y-46238644D01*
X65795244Y-46420968D01*
X65732009Y-46615582D01*
X65700000Y-46817682D01*
X65700000Y-47022317D01*
X65732009Y-47224417D01*
X65795244Y-47419031D01*
X65888141Y-47601350D01*
X65888147Y-47601359D01*
X65920523Y-47645921D01*
X65920524Y-47645922D01*
X66600000Y-46966446D01*
X66600000Y-46972661D01*
X66627259Y-47074394D01*
X66679920Y-47165606D01*
X66754394Y-47240080D01*
X66845606Y-47292741D01*
X66947339Y-47320000D01*
X66953553Y-47320000D01*
X66274076Y-47999474D01*
X66277052Y-48037282D01*
X66262687Y-48105659D01*
X66213636Y-48155415D01*
X66192440Y-48164715D01*
X66130672Y-48185184D01*
X66130663Y-48185187D01*
X65981342Y-48277289D01*
X65857289Y-48401342D01*
X65765187Y-48550663D01*
X65765186Y-48550666D01*
X65710001Y-48717203D01*
X65710001Y-48717204D01*
X65710000Y-48717204D01*
X65699500Y-48819983D01*
X65699500Y-50020001D01*
X65699501Y-50020018D01*
X65710000Y-50122796D01*
X65710001Y-50122799D01*
X65761019Y-50276759D01*
X65765186Y-50289334D01*
X65857288Y-50438656D01*
X65981344Y-50562712D01*
X66130666Y-50654814D01*
X66297203Y-50709999D01*
X66399991Y-50720500D01*
X67600008Y-50720499D01*
X67702797Y-50709999D01*
X67869334Y-50654814D01*
X68018656Y-50562712D01*
X68142712Y-50438656D01*
X68234814Y-50289334D01*
X68262595Y-50205495D01*
X68302368Y-50148051D01*
X68366884Y-50121228D01*
X68380301Y-50120500D01*
X73624631Y-50120500D01*
X73715675Y-50102389D01*
X73759963Y-50093580D01*
X73823704Y-50067177D01*
X73887442Y-50040777D01*
X73887443Y-50040776D01*
X73887446Y-50040775D01*
X74002178Y-49964114D01*
X75644114Y-48322178D01*
X75720775Y-48207446D01*
X75729996Y-48185186D01*
X75762936Y-48105659D01*
X75773580Y-48079963D01*
X75786470Y-48015161D01*
X75800500Y-47944631D01*
X75800500Y-36984353D01*
X75820185Y-36917314D01*
X75872989Y-36871559D01*
X75942147Y-36861615D01*
X76005703Y-36890640D01*
X76012181Y-36896672D01*
X77063181Y-37947672D01*
X77096666Y-38008995D01*
X77099500Y-38035353D01*
X77099500Y-46071006D01*
X77099500Y-46208994D01*
X77099500Y-46208996D01*
X77099499Y-46208996D01*
X77126418Y-46344322D01*
X77126421Y-46344332D01*
X77179222Y-46471807D01*
X77255887Y-46586545D01*
X77255888Y-46586546D01*
X77850597Y-47181253D01*
X77884082Y-47242576D01*
X77885389Y-47288331D01*
X77879500Y-47325513D01*
X77879500Y-47514486D01*
X77909059Y-47701118D01*
X77967454Y-47880836D01*
X78044754Y-48032545D01*
X78053240Y-48049199D01*
X78164310Y-48202073D01*
X78297927Y-48335690D01*
X78450801Y-48446760D01*
X78530173Y-48487202D01*
X78619163Y-48532545D01*
X78619165Y-48532545D01*
X78619168Y-48532547D01*
X78693860Y-48556816D01*
X78798881Y-48590940D01*
X78985514Y-48620500D01*
X78985519Y-48620500D01*
X79174486Y-48620500D01*
X79361118Y-48590940D01*
X79540832Y-48532547D01*
X79709199Y-48446760D01*
X79862073Y-48335690D01*
X79995690Y-48202073D01*
X80106760Y-48049199D01*
X80192547Y-47880832D01*
X80250940Y-47701118D01*
X80251120Y-47699981D01*
X80280500Y-47514486D01*
X80280500Y-47325513D01*
X81219500Y-47325513D01*
X81219500Y-47514486D01*
X81249059Y-47701118D01*
X81307454Y-47880836D01*
X81384754Y-48032545D01*
X81393240Y-48049199D01*
X81504310Y-48202073D01*
X81637927Y-48335690D01*
X81790801Y-48446760D01*
X81870173Y-48487202D01*
X81959163Y-48532545D01*
X81959165Y-48532545D01*
X81959168Y-48532547D01*
X82033860Y-48556816D01*
X82138881Y-48590940D01*
X82325514Y-48620500D01*
X82325519Y-48620500D01*
X82514486Y-48620500D01*
X82701118Y-48590940D01*
X82880832Y-48532547D01*
X83049199Y-48446760D01*
X83202073Y-48335690D01*
X83335690Y-48202073D01*
X83446760Y-48049199D01*
X83532547Y-47880832D01*
X83590940Y-47701118D01*
X83591120Y-47699981D01*
X83620500Y-47514486D01*
X83620500Y-47325513D01*
X86299500Y-47325513D01*
X86299500Y-47514486D01*
X86329059Y-47701118D01*
X86387454Y-47880836D01*
X86464754Y-48032545D01*
X86473240Y-48049199D01*
X86584310Y-48202073D01*
X86717927Y-48335690D01*
X86870801Y-48446760D01*
X86950173Y-48487202D01*
X87039163Y-48532545D01*
X87039165Y-48532545D01*
X87039168Y-48532547D01*
X87113860Y-48556816D01*
X87218881Y-48590940D01*
X87405514Y-48620500D01*
X87405519Y-48620500D01*
X87594486Y-48620500D01*
X87781118Y-48590940D01*
X87960832Y-48532547D01*
X88129199Y-48446760D01*
X88282073Y-48335690D01*
X88415690Y-48202073D01*
X88526760Y-48049199D01*
X88612547Y-47880832D01*
X88670940Y-47701118D01*
X88671120Y-47699981D01*
X88700500Y-47514486D01*
X88700500Y-47325513D01*
X88670940Y-47138881D01*
X88625672Y-46999563D01*
X88612547Y-46959168D01*
X88612545Y-46959165D01*
X88612545Y-46959163D01*
X88565758Y-46867339D01*
X88526760Y-46790801D01*
X88415690Y-46637927D01*
X88282073Y-46504310D01*
X88129199Y-46393240D01*
X87960836Y-46307454D01*
X87781118Y-46249059D01*
X87594486Y-46219500D01*
X87594481Y-46219500D01*
X87405519Y-46219500D01*
X87405514Y-46219500D01*
X87218881Y-46249059D01*
X87039163Y-46307454D01*
X86870800Y-46393240D01*
X86795139Y-46448212D01*
X86717927Y-46504310D01*
X86717925Y-46504312D01*
X86717924Y-46504312D01*
X86584312Y-46637924D01*
X86584312Y-46637925D01*
X86584310Y-46637927D01*
X86541352Y-46697053D01*
X86473240Y-46790800D01*
X86387454Y-46959163D01*
X86329059Y-47138881D01*
X86299500Y-47325513D01*
X83620500Y-47325513D01*
X83590940Y-47138881D01*
X83545672Y-46999563D01*
X83532547Y-46959168D01*
X83532545Y-46959165D01*
X83532545Y-46959163D01*
X83485758Y-46867339D01*
X83446760Y-46790801D01*
X83335690Y-46637927D01*
X83202073Y-46504310D01*
X83049199Y-46393240D01*
X82880836Y-46307454D01*
X82701118Y-46249059D01*
X82514486Y-46219500D01*
X82514481Y-46219500D01*
X82325519Y-46219500D01*
X82325514Y-46219500D01*
X82138881Y-46249059D01*
X81959163Y-46307454D01*
X81790800Y-46393240D01*
X81715139Y-46448212D01*
X81637927Y-46504310D01*
X81637925Y-46504312D01*
X81637924Y-46504312D01*
X81504312Y-46637924D01*
X81504312Y-46637925D01*
X81504310Y-46637927D01*
X81461352Y-46697053D01*
X81393240Y-46790800D01*
X81307454Y-46959163D01*
X81249059Y-47138881D01*
X81219500Y-47325513D01*
X80280500Y-47325513D01*
X80250940Y-47138881D01*
X80205672Y-46999563D01*
X80192547Y-46959168D01*
X80192545Y-46959165D01*
X80192545Y-46959163D01*
X80145758Y-46867339D01*
X80106760Y-46790801D01*
X79995690Y-46637927D01*
X79862073Y-46504310D01*
X79709199Y-46393240D01*
X79540836Y-46307454D01*
X79361118Y-46249059D01*
X79174486Y-46219500D01*
X79174481Y-46219500D01*
X78985519Y-46219500D01*
X78985514Y-46219500D01*
X78948331Y-46225389D01*
X78879038Y-46216434D01*
X78841253Y-46190597D01*
X78536819Y-45886162D01*
X78503334Y-45824839D01*
X78500500Y-45798481D01*
X78500500Y-42295800D01*
X78520185Y-42228761D01*
X78572989Y-42183006D01*
X78642147Y-42173062D01*
X78662820Y-42177870D01*
X78695458Y-42188475D01*
X78695461Y-42188475D01*
X78695466Y-42188477D01*
X78897648Y-42220500D01*
X78897649Y-42220500D01*
X79102351Y-42220500D01*
X79102352Y-42220500D01*
X79304534Y-42188477D01*
X79499219Y-42125220D01*
X79681610Y-42032287D01*
X79774590Y-41964732D01*
X79847213Y-41911971D01*
X79847215Y-41911968D01*
X79847219Y-41911966D01*
X79991966Y-41767219D01*
X80061425Y-41671615D01*
X80116755Y-41628949D01*
X80161744Y-41620500D01*
X83277663Y-41620500D01*
X83344702Y-41640185D01*
X83390457Y-41692989D01*
X83400401Y-41762147D01*
X83388148Y-41800795D01*
X83307454Y-41959163D01*
X83249059Y-42138881D01*
X83219500Y-42325513D01*
X83219500Y-42514486D01*
X83249059Y-42701118D01*
X83307454Y-42880836D01*
X83378362Y-43020000D01*
X83393240Y-43049199D01*
X83504310Y-43202073D01*
X83637927Y-43335690D01*
X83790801Y-43446760D01*
X83809562Y-43456319D01*
X83959163Y-43532545D01*
X83959165Y-43532545D01*
X83959168Y-43532547D01*
X84055497Y-43563846D01*
X84138881Y-43590940D01*
X84325514Y-43620500D01*
X84325519Y-43620500D01*
X84514486Y-43620500D01*
X84701118Y-43590940D01*
X84880832Y-43532547D01*
X85049199Y-43446760D01*
X85202073Y-43335690D01*
X85335690Y-43202073D01*
X85446760Y-43049199D01*
X85532547Y-42880832D01*
X85590940Y-42701118D01*
X85607282Y-42597938D01*
X85620500Y-42514486D01*
X85620500Y-42325513D01*
X85590940Y-42138881D01*
X85532545Y-41959163D01*
X85451852Y-41800795D01*
X85438956Y-41732126D01*
X85465232Y-41667385D01*
X85522339Y-41627128D01*
X85562337Y-41620500D01*
X88357663Y-41620500D01*
X88424702Y-41640185D01*
X88470457Y-41692989D01*
X88480401Y-41762147D01*
X88468148Y-41800795D01*
X88387454Y-41959163D01*
X88329059Y-42138881D01*
X88299500Y-42325513D01*
X88299500Y-42514486D01*
X88329059Y-42701118D01*
X88387454Y-42880836D01*
X88458362Y-43020000D01*
X88473240Y-43049199D01*
X88584310Y-43202073D01*
X88717927Y-43335690D01*
X88870801Y-43446760D01*
X88889562Y-43456319D01*
X89039163Y-43532545D01*
X89039165Y-43532545D01*
X89039168Y-43532547D01*
X89135497Y-43563846D01*
X89218881Y-43590940D01*
X89405514Y-43620500D01*
X89405519Y-43620500D01*
X89594486Y-43620500D01*
X89781118Y-43590940D01*
X89960832Y-43532547D01*
X90129199Y-43446760D01*
X90282073Y-43335690D01*
X90415690Y-43202073D01*
X90526760Y-43049199D01*
X90612547Y-42880832D01*
X90637722Y-42803351D01*
X90677158Y-42745678D01*
X90741517Y-42718479D01*
X90810363Y-42730394D01*
X90843333Y-42753990D01*
X94770597Y-46681253D01*
X94804082Y-46742576D01*
X94805389Y-46788331D01*
X94799500Y-46825513D01*
X94799500Y-47014486D01*
X94829059Y-47201118D01*
X94887454Y-47380836D01*
X94925915Y-47456319D01*
X94973240Y-47549199D01*
X95084310Y-47702073D01*
X95217927Y-47835690D01*
X95370801Y-47946760D01*
X95450347Y-47987290D01*
X95539163Y-48032545D01*
X95539165Y-48032545D01*
X95539168Y-48032547D01*
X95624973Y-48060427D01*
X95718881Y-48090940D01*
X95905514Y-48120500D01*
X95905519Y-48120500D01*
X96094486Y-48120500D01*
X96281118Y-48090940D01*
X96314889Y-48079967D01*
X96460832Y-48032547D01*
X96629199Y-47946760D01*
X96782073Y-47835690D01*
X96915690Y-47702073D01*
X97026760Y-47549199D01*
X97112547Y-47380832D01*
X97170940Y-47201118D01*
X97175173Y-47174394D01*
X97200500Y-47014486D01*
X97200500Y-46825513D01*
X97170940Y-46638881D01*
X97127215Y-46504312D01*
X97112547Y-46459168D01*
X97112545Y-46459165D01*
X97112545Y-46459163D01*
X97052095Y-46340524D01*
X97026760Y-46290801D01*
X96915690Y-46137927D01*
X96782073Y-46004310D01*
X96629199Y-45893240D01*
X96615308Y-45886162D01*
X96460836Y-45807454D01*
X96281118Y-45749059D01*
X96094486Y-45719500D01*
X96094481Y-45719500D01*
X95905519Y-45719500D01*
X95905514Y-45719500D01*
X95868331Y-45725389D01*
X95799038Y-45716434D01*
X95761253Y-45690597D01*
X90446546Y-40375888D01*
X90446545Y-40375887D01*
X90331807Y-40299222D01*
X90204332Y-40246421D01*
X90204322Y-40246418D01*
X90068996Y-40219500D01*
X90068994Y-40219500D01*
X90068993Y-40219500D01*
X80161744Y-40219500D01*
X80094705Y-40199815D01*
X80061425Y-40168384D01*
X79991969Y-40072784D01*
X79847213Y-39928028D01*
X79681611Y-39807713D01*
X79588369Y-39760203D01*
X79537574Y-39712229D01*
X79520779Y-39644407D01*
X79543317Y-39578273D01*
X79588371Y-39539234D01*
X79681346Y-39491861D01*
X79681347Y-39491861D01*
X79725921Y-39459474D01*
X79046447Y-38780000D01*
X79052661Y-38780000D01*
X79154394Y-38752741D01*
X79245606Y-38700080D01*
X79320080Y-38625606D01*
X79372741Y-38534394D01*
X79400000Y-38432661D01*
X79400000Y-38426447D01*
X80079474Y-39105921D01*
X80111859Y-39061349D01*
X80204755Y-38879031D01*
X80267990Y-38684417D01*
X80300000Y-38482317D01*
X80300000Y-38277682D01*
X80267990Y-38075582D01*
X80204753Y-37880964D01*
X80202705Y-37876944D01*
X80202703Y-37876942D01*
X80176499Y-37825513D01*
X84299500Y-37825513D01*
X84299500Y-38014486D01*
X84329059Y-38201118D01*
X84387454Y-38380836D01*
X84448172Y-38500000D01*
X84473240Y-38549199D01*
X84584310Y-38702073D01*
X84717927Y-38835690D01*
X84870801Y-38946760D01*
X84950347Y-38987290D01*
X85039163Y-39032545D01*
X85039165Y-39032545D01*
X85039168Y-39032547D01*
X85127811Y-39061349D01*
X85218881Y-39090940D01*
X85405514Y-39120500D01*
X85405519Y-39120500D01*
X85594486Y-39120500D01*
X85781118Y-39090940D01*
X85960832Y-39032547D01*
X86129199Y-38946760D01*
X86282073Y-38835690D01*
X86415690Y-38702073D01*
X86526760Y-38549199D01*
X86612547Y-38380832D01*
X86670940Y-38201118D01*
X86690823Y-38075582D01*
X86700500Y-38014486D01*
X86700500Y-37825513D01*
X86670940Y-37638881D01*
X86612545Y-37459163D01*
X86549362Y-37335160D01*
X86526760Y-37290801D01*
X86415690Y-37137927D01*
X86282073Y-37004310D01*
X86129199Y-36893240D01*
X86086648Y-36871559D01*
X85960836Y-36807454D01*
X85781118Y-36749059D01*
X85594486Y-36719500D01*
X85594481Y-36719500D01*
X85405519Y-36719500D01*
X85405514Y-36719500D01*
X85218881Y-36749059D01*
X85039163Y-36807454D01*
X84870800Y-36893240D01*
X84789530Y-36952287D01*
X84717927Y-37004310D01*
X84717925Y-37004312D01*
X84717924Y-37004312D01*
X84584312Y-37137924D01*
X84584312Y-37137925D01*
X84584310Y-37137927D01*
X84536610Y-37203579D01*
X84473240Y-37290800D01*
X84387454Y-37459163D01*
X84329059Y-37638881D01*
X84299500Y-37825513D01*
X80176499Y-37825513D01*
X80111859Y-37698650D01*
X80079474Y-37654077D01*
X80079474Y-37654076D01*
X79400000Y-38333551D01*
X79400000Y-38327339D01*
X79372741Y-38225606D01*
X79320080Y-38134394D01*
X79245606Y-38059920D01*
X79154394Y-38007259D01*
X79052661Y-37980000D01*
X79046446Y-37980000D01*
X79725922Y-37300524D01*
X79725921Y-37300523D01*
X79681359Y-37268147D01*
X79681350Y-37268141D01*
X79588369Y-37220765D01*
X79537573Y-37172790D01*
X79520778Y-37104969D01*
X79543315Y-37038835D01*
X79588370Y-36999795D01*
X79588920Y-36999515D01*
X79681610Y-36952287D01*
X79766461Y-36890640D01*
X79847213Y-36831971D01*
X79847215Y-36831968D01*
X79847219Y-36831966D01*
X79991966Y-36687219D01*
X80061425Y-36591615D01*
X80116755Y-36548949D01*
X80161744Y-36540500D01*
X82568996Y-36540500D01*
X82672651Y-36519881D01*
X82704328Y-36513580D01*
X82795330Y-36475886D01*
X82831807Y-36460777D01*
X82831808Y-36460776D01*
X82831811Y-36460775D01*
X82946543Y-36384114D01*
X84076820Y-35253837D01*
X84448755Y-34881902D01*
X93459500Y-34881902D01*
X93459500Y-35118097D01*
X93496446Y-35351368D01*
X93569433Y-35575996D01*
X93651799Y-35737647D01*
X93676657Y-35786433D01*
X93815483Y-35977510D01*
X93982490Y-36144517D01*
X94173567Y-36283343D01*
X94272991Y-36334002D01*
X94384003Y-36390566D01*
X94384005Y-36390566D01*
X94384008Y-36390568D01*
X94413037Y-36400000D01*
X94608631Y-36463553D01*
X94841903Y-36500500D01*
X94841908Y-36500500D01*
X95078097Y-36500500D01*
X95311368Y-36463553D01*
X95381120Y-36440889D01*
X95535992Y-36390568D01*
X95746433Y-36283343D01*
X95937510Y-36144517D01*
X95937516Y-36144511D01*
X95941221Y-36141348D01*
X95942784Y-36143179D01*
X95995292Y-36114339D01*
X96064996Y-36119152D01*
X96121032Y-36160885D01*
X96127487Y-36170342D01*
X96154311Y-36213830D01*
X96157288Y-36218656D01*
X96281344Y-36342712D01*
X96430666Y-36434814D01*
X96597203Y-36489999D01*
X96688103Y-36499285D01*
X96752794Y-36525681D01*
X96792945Y-36582861D01*
X96799500Y-36622642D01*
X96799500Y-38931006D01*
X96799500Y-39068994D01*
X96799500Y-39068996D01*
X96799499Y-39068996D01*
X96826418Y-39204322D01*
X96826421Y-39204332D01*
X96879222Y-39331807D01*
X96955887Y-39446545D01*
X96955888Y-39446546D01*
X105463181Y-47953838D01*
X105496666Y-48015161D01*
X105499500Y-48041519D01*
X105499500Y-49300001D01*
X105499501Y-49300018D01*
X105510000Y-49402796D01*
X105510001Y-49402799D01*
X105565185Y-49569331D01*
X105565186Y-49569334D01*
X105657288Y-49718656D01*
X105781344Y-49842712D01*
X105930666Y-49934814D01*
X106097203Y-49989999D01*
X106199991Y-50000500D01*
X107800008Y-50000499D01*
X107902797Y-49989999D01*
X108069334Y-49934814D01*
X108218656Y-49842712D01*
X108342712Y-49718656D01*
X108434814Y-49569334D01*
X108489999Y-49402797D01*
X108500500Y-49300009D01*
X108500499Y-47699992D01*
X108500498Y-47699981D01*
X108489999Y-47597201D01*
X108489998Y-47597200D01*
X108462589Y-47514486D01*
X108434814Y-47430666D01*
X108342712Y-47281344D01*
X108218656Y-47157288D01*
X108218655Y-47157287D01*
X108170342Y-47127487D01*
X108123618Y-47075539D01*
X108112397Y-47006576D01*
X108140241Y-46942494D01*
X108141381Y-46941249D01*
X108141348Y-46941221D01*
X108144511Y-46937516D01*
X108144511Y-46937515D01*
X108144517Y-46937510D01*
X108283343Y-46746433D01*
X108390568Y-46535992D01*
X108463553Y-46311368D01*
X108464173Y-46307453D01*
X108500500Y-46078097D01*
X108500500Y-45841902D01*
X108463553Y-45608631D01*
X108402516Y-45420781D01*
X108390568Y-45384008D01*
X108390566Y-45384005D01*
X108390566Y-45384003D01*
X108316370Y-45238386D01*
X108283343Y-45173567D01*
X108144517Y-44982490D01*
X107977510Y-44815483D01*
X107942872Y-44790317D01*
X107900207Y-44734989D01*
X107894228Y-44665375D01*
X107926833Y-44603580D01*
X107942873Y-44589682D01*
X107977510Y-44564517D01*
X108144517Y-44397510D01*
X108283343Y-44206433D01*
X108390568Y-43995992D01*
X108463553Y-43771368D01*
X108500500Y-43538097D01*
X108500500Y-43301902D01*
X108463553Y-43068631D01*
X108402534Y-42880836D01*
X108390568Y-42844008D01*
X108390566Y-42844005D01*
X108390566Y-42844003D01*
X108283342Y-42633566D01*
X108144517Y-42442490D01*
X107977510Y-42275483D01*
X107942872Y-42250317D01*
X107900207Y-42194989D01*
X107894228Y-42125375D01*
X107926833Y-42063580D01*
X107942873Y-42049682D01*
X107977510Y-42024517D01*
X108144517Y-41857510D01*
X108283343Y-41666433D01*
X108390568Y-41455992D01*
X108463553Y-41231368D01*
X108488030Y-41076826D01*
X108500500Y-40998097D01*
X108500500Y-40761902D01*
X108469542Y-40566446D01*
X108463553Y-40528632D01*
X108457230Y-40509175D01*
X108455234Y-40439335D01*
X108487478Y-40383177D01*
X110044114Y-38826543D01*
X110120775Y-38711811D01*
X110121591Y-38709843D01*
X110173578Y-38584332D01*
X110173580Y-38584328D01*
X110197701Y-38463065D01*
X110200500Y-38448996D01*
X110200500Y-34931004D01*
X110173581Y-34795676D01*
X110173580Y-34795675D01*
X110173580Y-34795672D01*
X110161108Y-34765563D01*
X110154780Y-34750285D01*
X110150311Y-34739494D01*
X110150311Y-34739493D01*
X110120776Y-34668192D01*
X110120775Y-34668189D01*
X110120773Y-34668186D01*
X110120771Y-34668182D01*
X110044115Y-34553459D01*
X109995876Y-34505220D01*
X109946542Y-34455886D01*
X109637869Y-34147213D01*
X108446546Y-32955888D01*
X108446545Y-32955887D01*
X108331807Y-32879222D01*
X108204332Y-32826421D01*
X108204322Y-32826418D01*
X108068996Y-32799500D01*
X108068994Y-32799500D01*
X108068993Y-32799500D01*
X96391007Y-32799500D01*
X96391003Y-32799500D01*
X96282590Y-32821065D01*
X96282589Y-32821065D01*
X96255671Y-32826420D01*
X96208486Y-32845965D01*
X96208485Y-32845965D01*
X96128193Y-32879222D01*
X96128191Y-32879223D01*
X96061528Y-32923767D01*
X96061527Y-32923768D01*
X96013454Y-32955888D01*
X95456824Y-33512518D01*
X95395501Y-33546003D01*
X95330828Y-33542769D01*
X95311369Y-33536447D01*
X95078097Y-33499500D01*
X95078092Y-33499500D01*
X94841908Y-33499500D01*
X94841903Y-33499500D01*
X94608631Y-33536446D01*
X94384003Y-33609433D01*
X94173566Y-33716657D01*
X94064550Y-33795862D01*
X93982490Y-33855483D01*
X93982488Y-33855485D01*
X93982487Y-33855485D01*
X93815485Y-34022487D01*
X93815485Y-34022488D01*
X93815483Y-34022490D01*
X93755862Y-34104550D01*
X93676657Y-34213566D01*
X93569433Y-34424003D01*
X93496446Y-34648631D01*
X93459500Y-34881902D01*
X84448755Y-34881902D01*
X84541302Y-34789355D01*
X85261254Y-34069402D01*
X85322577Y-34035917D01*
X85368333Y-34034610D01*
X85405519Y-34040500D01*
X85405520Y-34040500D01*
X85594486Y-34040500D01*
X85781118Y-34010940D01*
X85960832Y-33952547D01*
X86129199Y-33866760D01*
X86282073Y-33755690D01*
X86415690Y-33622073D01*
X86526760Y-33469199D01*
X86612547Y-33300832D01*
X86670940Y-33121118D01*
X86677651Y-33078745D01*
X86700500Y-32934486D01*
X86700500Y-32745513D01*
X86670940Y-32558881D01*
X86636465Y-32452781D01*
X86612547Y-32379168D01*
X86612545Y-32379165D01*
X86612545Y-32379163D01*
X86556674Y-32269511D01*
X86526760Y-32210801D01*
X86415690Y-32057927D01*
X86282073Y-31924310D01*
X86129199Y-31813240D01*
X85960836Y-31727454D01*
X85781118Y-31669059D01*
X85594486Y-31639500D01*
X85594481Y-31639500D01*
X85405519Y-31639500D01*
X85405514Y-31639500D01*
X85218881Y-31669059D01*
X85039163Y-31727454D01*
X84870800Y-31813240D01*
X84783579Y-31876610D01*
X84717927Y-31924310D01*
X84717925Y-31924312D01*
X84717924Y-31924312D01*
X84584312Y-32057924D01*
X84584312Y-32057925D01*
X84584310Y-32057927D01*
X84557535Y-32094780D01*
X84473240Y-32210800D01*
X84387454Y-32379163D01*
X84329059Y-32558881D01*
X84299500Y-32745513D01*
X84299500Y-32934482D01*
X84305389Y-32971668D01*
X84296433Y-33040961D01*
X84270596Y-33078745D01*
X82246162Y-35103181D01*
X82184839Y-35136666D01*
X82158481Y-35139500D01*
X80161744Y-35139500D01*
X80094705Y-35119815D01*
X80061425Y-35088384D01*
X80060087Y-35086543D01*
X80018322Y-35029057D01*
X79991969Y-34992784D01*
X79847213Y-34848028D01*
X79681614Y-34727715D01*
X79644872Y-34708994D01*
X79588917Y-34680483D01*
X79538123Y-34632511D01*
X79521328Y-34564690D01*
X79543865Y-34498555D01*
X79588917Y-34459516D01*
X79681610Y-34412287D01*
X79766045Y-34350942D01*
X79847213Y-34291971D01*
X79847215Y-34291968D01*
X79847219Y-34291966D01*
X79991966Y-34147219D01*
X79991968Y-34147215D01*
X79991971Y-34147213D01*
X80048503Y-34069402D01*
X80112287Y-33981610D01*
X80205220Y-33799219D01*
X80268477Y-33604534D01*
X80300500Y-33402352D01*
X80300500Y-33197648D01*
X80274591Y-33034069D01*
X80268477Y-32995465D01*
X80213551Y-32826421D01*
X80205220Y-32800781D01*
X80205218Y-32800778D01*
X80205218Y-32800776D01*
X80171503Y-32734607D01*
X80112287Y-32618390D01*
X80104556Y-32607749D01*
X79991971Y-32452786D01*
X79847213Y-32308028D01*
X79681613Y-32187715D01*
X79681612Y-32187714D01*
X79681610Y-32187713D01*
X79624653Y-32158691D01*
X79499223Y-32094781D01*
X79304534Y-32031522D01*
X79129995Y-32003878D01*
X79102352Y-31999500D01*
X78897648Y-31999500D01*
X78873329Y-32003351D01*
X78695465Y-32031522D01*
X78500776Y-32094781D01*
X78318386Y-32187715D01*
X78152786Y-32308028D01*
X78008028Y-32452786D01*
X77887715Y-32618386D01*
X77794781Y-32800776D01*
X77731522Y-32995465D01*
X77699500Y-33197648D01*
X77699500Y-33402351D01*
X77731522Y-33604534D01*
X77794781Y-33799223D01*
X77887715Y-33981613D01*
X78008028Y-34147213D01*
X78152786Y-34291971D01*
X78233963Y-34350948D01*
X78318390Y-34412287D01*
X78403958Y-34455886D01*
X78411080Y-34459515D01*
X78461876Y-34507490D01*
X78478671Y-34575311D01*
X78456134Y-34641446D01*
X78411080Y-34680485D01*
X78318386Y-34727715D01*
X78152786Y-34848028D01*
X78008028Y-34992786D01*
X77887715Y-35158386D01*
X77794781Y-35340776D01*
X77731522Y-35535465D01*
X77699500Y-35737648D01*
X77699500Y-35942351D01*
X77731522Y-36144534D01*
X77794782Y-36339226D01*
X77812020Y-36373056D01*
X77824916Y-36441725D01*
X77798639Y-36506465D01*
X77741533Y-36546722D01*
X77671727Y-36549714D01*
X77613854Y-36517031D01*
X72652712Y-31555888D01*
X72652711Y-31555887D01*
X72537973Y-31479222D01*
X72410498Y-31426421D01*
X72410488Y-31426418D01*
X72275162Y-31399500D01*
X72275160Y-31399500D01*
X72275159Y-31399500D01*
X70484841Y-31399500D01*
X70484839Y-31399500D01*
X70349511Y-31426418D01*
X70349501Y-31426421D01*
X70222026Y-31479222D01*
X70107288Y-31555887D01*
X69635887Y-32027288D01*
X69615416Y-32057927D01*
X69559223Y-32142025D01*
X69506421Y-32269501D01*
X69506418Y-32269511D01*
X69479500Y-32404838D01*
X69479500Y-32404841D01*
X69479500Y-34571006D01*
X69479500Y-34708994D01*
X69479500Y-34708996D01*
X69479499Y-34708996D01*
X69506418Y-34844322D01*
X69506421Y-34844332D01*
X69559222Y-34971807D01*
X69635887Y-35086545D01*
X69635888Y-35086546D01*
X70063194Y-35513851D01*
X70096679Y-35575174D01*
X70097986Y-35620929D01*
X70079500Y-35737647D01*
X70079500Y-35942351D01*
X70111522Y-36144534D01*
X70174781Y-36339223D01*
X70227009Y-36441725D01*
X70263620Y-36513578D01*
X70267715Y-36521613D01*
X70388028Y-36687213D01*
X70532786Y-36831971D01*
X70650253Y-36917314D01*
X70698390Y-36952287D01*
X70789840Y-36998883D01*
X70791080Y-36999515D01*
X70841876Y-37047490D01*
X70858671Y-37115311D01*
X70836134Y-37181446D01*
X70791080Y-37220485D01*
X70698386Y-37267715D01*
X70532786Y-37388028D01*
X70388028Y-37532786D01*
X70267715Y-37698386D01*
X70174781Y-37880776D01*
X70111522Y-38075465D01*
X70079500Y-38277648D01*
X70079500Y-38482351D01*
X70111522Y-38684534D01*
X70174781Y-38879223D01*
X70267715Y-39061613D01*
X70388028Y-39227213D01*
X70532786Y-39371971D01*
X70698385Y-39492284D01*
X70698387Y-39492285D01*
X70698390Y-39492287D01*
X70790529Y-39539234D01*
X70791630Y-39539795D01*
X70842426Y-39587770D01*
X70859221Y-39655591D01*
X70836684Y-39721725D01*
X70791630Y-39760765D01*
X70698644Y-39808143D01*
X70654077Y-39840523D01*
X70654077Y-39840524D01*
X71333554Y-40520000D01*
X71327339Y-40520000D01*
X71225606Y-40547259D01*
X71134394Y-40599920D01*
X71059920Y-40674394D01*
X71007259Y-40765606D01*
X70980000Y-40867339D01*
X70980000Y-40873553D01*
X70300524Y-40194077D01*
X70300523Y-40194077D01*
X70268143Y-40238644D01*
X70175244Y-40420968D01*
X70112009Y-40615582D01*
X70080000Y-40817682D01*
X70080000Y-41022317D01*
X70112009Y-41224417D01*
X70175244Y-41419031D01*
X70268141Y-41601350D01*
X70268147Y-41601359D01*
X70300523Y-41645921D01*
X70300524Y-41645922D01*
X70980000Y-40966446D01*
X70980000Y-40972661D01*
X71007259Y-41074394D01*
X71059920Y-41165606D01*
X71134394Y-41240080D01*
X71225606Y-41292741D01*
X71327339Y-41320000D01*
X71333553Y-41320000D01*
X70654076Y-41999474D01*
X70698650Y-42031859D01*
X70880968Y-42124755D01*
X71075582Y-42187990D01*
X71277683Y-42220000D01*
X71482317Y-42220000D01*
X71684417Y-42187990D01*
X71879031Y-42124755D01*
X72061349Y-42031859D01*
X72105921Y-41999474D01*
X71426447Y-41320000D01*
X71432661Y-41320000D01*
X71534394Y-41292741D01*
X71625606Y-41240080D01*
X71700080Y-41165606D01*
X71752741Y-41074394D01*
X71780000Y-40972661D01*
X71780000Y-40966447D01*
X72459474Y-41645921D01*
X72491859Y-41601349D01*
X72584755Y-41419031D01*
X72647990Y-41224417D01*
X72680000Y-41022317D01*
X72680000Y-40817682D01*
X72647990Y-40615582D01*
X72584755Y-40420968D01*
X72491859Y-40238650D01*
X72459474Y-40194077D01*
X72459474Y-40194076D01*
X71780000Y-40873551D01*
X71780000Y-40867339D01*
X71752741Y-40765606D01*
X71700080Y-40674394D01*
X71625606Y-40599920D01*
X71534394Y-40547259D01*
X71432661Y-40520000D01*
X71426446Y-40520000D01*
X72105922Y-39840524D01*
X72105921Y-39840523D01*
X72061359Y-39808147D01*
X72061350Y-39808141D01*
X71968369Y-39760765D01*
X71917573Y-39712790D01*
X71900778Y-39644969D01*
X71923315Y-39578835D01*
X71968370Y-39539795D01*
X71969471Y-39539234D01*
X72061610Y-39492287D01*
X72160384Y-39420524D01*
X72227213Y-39371971D01*
X72227215Y-39371968D01*
X72227219Y-39371966D01*
X72371966Y-39227219D01*
X72371968Y-39227215D01*
X72371971Y-39227213D01*
X72424732Y-39154590D01*
X72492287Y-39061610D01*
X72585220Y-38879219D01*
X72648477Y-38684534D01*
X72680500Y-38482352D01*
X72680500Y-38277648D01*
X72661849Y-38159889D01*
X72648477Y-38075465D01*
X72585218Y-37880776D01*
X72537015Y-37786174D01*
X72492287Y-37698390D01*
X72460092Y-37654077D01*
X72371971Y-37532786D01*
X72227213Y-37388028D01*
X72061614Y-37267715D01*
X72055006Y-37264348D01*
X71968917Y-37220483D01*
X71918123Y-37172511D01*
X71901328Y-37104690D01*
X71923865Y-37038555D01*
X71968917Y-36999516D01*
X72061610Y-36952287D01*
X72146461Y-36890640D01*
X72227213Y-36831971D01*
X72227215Y-36831968D01*
X72227219Y-36831966D01*
X72371966Y-36687219D01*
X72371968Y-36687215D01*
X72371971Y-36687213D01*
X72424732Y-36614590D01*
X72492287Y-36521610D01*
X72585220Y-36339219D01*
X72648477Y-36144534D01*
X72680500Y-35942352D01*
X72680500Y-35890518D01*
X72700185Y-35823479D01*
X72752989Y-35777724D01*
X72822147Y-35767780D01*
X72885703Y-35796805D01*
X72892181Y-35802837D01*
X74363181Y-37273837D01*
X74396666Y-37335160D01*
X74399500Y-37361518D01*
X74399500Y-46122624D01*
X74379815Y-46189663D01*
X74327011Y-46235418D01*
X74257853Y-46245362D01*
X74256102Y-46245097D01*
X74094486Y-46219500D01*
X74094481Y-46219500D01*
X73905519Y-46219500D01*
X73905514Y-46219500D01*
X73718881Y-46249059D01*
X73539163Y-46307454D01*
X73370800Y-46393240D01*
X73295139Y-46448212D01*
X73217927Y-46504310D01*
X73217925Y-46504312D01*
X73217924Y-46504312D01*
X73084309Y-46637927D01*
X73062179Y-46668387D01*
X73006848Y-46711052D01*
X72961862Y-46719500D01*
X70261518Y-46719500D01*
X70194479Y-46699815D01*
X70173837Y-46683181D01*
X65530553Y-42039896D01*
X65413350Y-41922693D01*
X65379865Y-41861370D01*
X65384849Y-41791678D01*
X65426721Y-41735745D01*
X65462710Y-41717082D01*
X65499219Y-41705220D01*
X65681610Y-41612287D01*
X65774590Y-41544732D01*
X65847213Y-41491971D01*
X65847215Y-41491968D01*
X65847219Y-41491966D01*
X65991966Y-41347219D01*
X65991968Y-41347215D01*
X65991971Y-41347213D01*
X66112286Y-41181611D01*
X66112415Y-41181359D01*
X66139795Y-41127621D01*
X66187769Y-41076826D01*
X66255589Y-41060030D01*
X66321725Y-41082567D01*
X66360765Y-41127621D01*
X66388141Y-41181350D01*
X66388147Y-41181359D01*
X66420523Y-41225921D01*
X66420524Y-41225922D01*
X67100000Y-40546446D01*
X67100000Y-40552661D01*
X67127259Y-40654394D01*
X67179920Y-40745606D01*
X67254394Y-40820080D01*
X67345606Y-40872741D01*
X67447339Y-40900000D01*
X67453553Y-40900000D01*
X66774076Y-41579474D01*
X66818650Y-41611859D01*
X67000968Y-41704755D01*
X67195582Y-41767990D01*
X67397683Y-41800000D01*
X67602317Y-41800000D01*
X67804417Y-41767990D01*
X67999031Y-41704755D01*
X68181349Y-41611859D01*
X68225921Y-41579474D01*
X67546447Y-40900000D01*
X67552661Y-40900000D01*
X67654394Y-40872741D01*
X67745606Y-40820080D01*
X67820080Y-40745606D01*
X67872741Y-40654394D01*
X67900000Y-40552661D01*
X67900000Y-40546447D01*
X68579474Y-41225921D01*
X68611859Y-41181349D01*
X68704755Y-40999031D01*
X68767988Y-40804422D01*
X68769731Y-40793420D01*
X68769732Y-40793417D01*
X68800000Y-40602317D01*
X68800000Y-40397682D01*
X68767990Y-40195582D01*
X68704755Y-40000968D01*
X68611859Y-39818650D01*
X68579474Y-39774077D01*
X68579474Y-39774076D01*
X67900000Y-40453551D01*
X67900000Y-40447339D01*
X67872741Y-40345606D01*
X67820080Y-40254394D01*
X67745606Y-40179920D01*
X67654394Y-40127259D01*
X67552661Y-40100000D01*
X67546446Y-40100000D01*
X68225922Y-39420524D01*
X68225921Y-39420523D01*
X68181359Y-39388147D01*
X68181350Y-39388141D01*
X67999031Y-39295244D01*
X67804417Y-39232009D01*
X67602317Y-39200000D01*
X67397683Y-39200000D01*
X67195582Y-39232009D01*
X67000968Y-39295244D01*
X66818644Y-39388143D01*
X66774077Y-39420523D01*
X66774077Y-39420524D01*
X67453554Y-40100000D01*
X67447339Y-40100000D01*
X67345606Y-40127259D01*
X67254394Y-40179920D01*
X67179920Y-40254394D01*
X67127259Y-40345606D01*
X67100000Y-40447339D01*
X67100000Y-40453553D01*
X66420524Y-39774077D01*
X66420523Y-39774077D01*
X66388143Y-39818644D01*
X66360765Y-39872378D01*
X66312790Y-39923174D01*
X66244969Y-39939969D01*
X66178834Y-39917431D01*
X66139795Y-39872378D01*
X66112287Y-39818390D01*
X66112285Y-39818387D01*
X66112284Y-39818385D01*
X65991971Y-39652786D01*
X65847213Y-39508028D01*
X65681613Y-39387715D01*
X65681612Y-39387714D01*
X65681610Y-39387713D01*
X65624653Y-39358691D01*
X65499223Y-39294781D01*
X65304534Y-39231522D01*
X65129995Y-39203878D01*
X65102352Y-39199500D01*
X64897648Y-39199500D01*
X64873329Y-39203351D01*
X64695465Y-39231522D01*
X64500776Y-39294781D01*
X64318386Y-39387715D01*
X64152786Y-39508028D01*
X64008028Y-39652786D01*
X63887715Y-39818386D01*
X63794780Y-40000779D01*
X63782917Y-40037289D01*
X63743478Y-40094964D01*
X63679119Y-40122160D01*
X63610273Y-40110244D01*
X63577306Y-40086649D01*
X62816819Y-39326162D01*
X62783334Y-39264839D01*
X62780500Y-39238481D01*
X62780500Y-34482858D01*
X62800185Y-34415819D01*
X62831616Y-34382539D01*
X62875098Y-34350948D01*
X62875098Y-34350947D01*
X62875102Y-34350945D01*
X63010945Y-34215102D01*
X63123865Y-34059681D01*
X63211082Y-33888509D01*
X63270447Y-33705801D01*
X63300500Y-33516055D01*
X63300500Y-33323945D01*
X63270447Y-33134199D01*
X63235027Y-33025186D01*
X63211083Y-32951493D01*
X63174259Y-32879222D01*
X63123865Y-32780319D01*
X63010945Y-32624898D01*
X62875102Y-32489055D01*
X62719681Y-32376135D01*
X62548506Y-32288916D01*
X62365802Y-32229553D01*
X62247400Y-32210800D01*
X62176055Y-32199500D01*
X61983945Y-32199500D01*
X61920696Y-32209517D01*
X61794197Y-32229553D01*
X61611493Y-32288916D01*
X61440318Y-32376135D01*
X61351645Y-32440560D01*
X61284898Y-32489055D01*
X61284896Y-32489057D01*
X61284895Y-32489057D01*
X61149057Y-32624895D01*
X61149057Y-32624896D01*
X61149055Y-32624898D01*
X61100560Y-32691645D01*
X61036135Y-32780318D01*
X60948916Y-32951493D01*
X60889553Y-33134197D01*
X60859500Y-33323945D01*
X60859500Y-33516059D01*
X60867908Y-33569146D01*
X60858953Y-33638440D01*
X60833116Y-33676225D01*
X59796225Y-34713116D01*
X59734902Y-34746601D01*
X59689146Y-34747908D01*
X59636059Y-34739500D01*
X59636055Y-34739500D01*
X59443945Y-34739500D01*
X59390859Y-34747908D01*
X59254197Y-34769553D01*
X59071493Y-34828916D01*
X58900318Y-34916135D01*
X58811645Y-34980560D01*
X58744898Y-35029055D01*
X58744896Y-35029057D01*
X58744895Y-35029057D01*
X58609057Y-35164895D01*
X58609057Y-35164896D01*
X58609055Y-35164898D01*
X58560560Y-35231645D01*
X58496135Y-35320318D01*
X58408916Y-35491493D01*
X58349553Y-35674197D01*
X58319500Y-35863945D01*
X49237545Y-35863945D01*
X48751843Y-35378243D01*
X48718358Y-35316920D01*
X48716166Y-35277957D01*
X48718000Y-35260009D01*
X48717999Y-33659992D01*
X48715797Y-33638440D01*
X48707499Y-33557203D01*
X48707498Y-33557200D01*
X48693864Y-33516055D01*
X48652314Y-33390666D01*
X48611160Y-33323945D01*
X55779500Y-33323945D01*
X55779500Y-33516054D01*
X55809553Y-33705802D01*
X55868916Y-33888506D01*
X55937184Y-34022488D01*
X55956135Y-34059681D01*
X56069055Y-34215102D01*
X56204898Y-34350945D01*
X56360319Y-34463865D01*
X56531491Y-34551082D01*
X56531493Y-34551083D01*
X56589715Y-34570000D01*
X56714199Y-34610447D01*
X56903945Y-34640500D01*
X56903946Y-34640500D01*
X57096054Y-34640500D01*
X57096055Y-34640500D01*
X57285801Y-34610447D01*
X57468509Y-34551082D01*
X57639681Y-34463865D01*
X57795102Y-34350945D01*
X57930945Y-34215102D01*
X58043865Y-34059681D01*
X58131082Y-33888509D01*
X58190447Y-33705801D01*
X58220500Y-33516055D01*
X58220500Y-33323945D01*
X58190447Y-33134199D01*
X58155027Y-33025186D01*
X58131083Y-32951493D01*
X58094259Y-32879222D01*
X58043865Y-32780319D01*
X57930945Y-32624898D01*
X57795102Y-32489055D01*
X57639681Y-32376135D01*
X57468506Y-32288916D01*
X57285802Y-32229553D01*
X57167400Y-32210800D01*
X57096055Y-32199500D01*
X56903945Y-32199500D01*
X56840696Y-32209517D01*
X56714197Y-32229553D01*
X56531493Y-32288916D01*
X56360318Y-32376135D01*
X56271645Y-32440560D01*
X56204898Y-32489055D01*
X56204896Y-32489057D01*
X56204895Y-32489057D01*
X56069057Y-32624895D01*
X56069057Y-32624896D01*
X56069055Y-32624898D01*
X56020560Y-32691645D01*
X55956135Y-32780318D01*
X55868916Y-32951493D01*
X55809553Y-33134197D01*
X55779500Y-33323945D01*
X48611160Y-33323945D01*
X48560212Y-33241344D01*
X48436156Y-33117288D01*
X48343388Y-33060069D01*
X48286836Y-33025187D01*
X48286831Y-33025185D01*
X48285362Y-33024698D01*
X48120297Y-32970001D01*
X48120295Y-32970000D01*
X48017510Y-32959500D01*
X46417498Y-32959500D01*
X46417481Y-32959501D01*
X46314703Y-32970000D01*
X46314700Y-32970001D01*
X46148168Y-33025185D01*
X46148163Y-33025187D01*
X45998842Y-33117289D01*
X45874789Y-33241342D01*
X45782687Y-33390663D01*
X45782685Y-33390668D01*
X45756663Y-33469199D01*
X45727501Y-33557203D01*
X45727501Y-33557204D01*
X45727500Y-33557204D01*
X45717000Y-33659983D01*
X40000500Y-33659983D01*
X40000500Y-25124500D01*
X40020185Y-25057461D01*
X40072989Y-25011706D01*
X40124500Y-25000500D01*
X115875500Y-25000500D01*
X115942539Y-25020185D01*
G37*
%TD.AperFunction*%
%TD*%
M02*
